<?xml version="1.0" encoding="UTF-8"?><svg id="Layer_2" xmlns="http://www.w3.org/2000/svg" viewBox="0 0 50 50"><defs><style>.cls-1{fill:#3d3d3d;stroke-width:0px;}</style></defs><g id="Settings_From_Account"><g id="Close_Account"><path class="cls-1" d="m25,0C11.19,0,0,11.19,0,25s11.19,25,25,25,25-11.19,25-25S38.81,0,25,0Zm2.27,35.23c0,1.26-1.02,2.27-2.27,2.27s-2.27-1.02-2.27-2.27v-10.61c0-1.26,1.02-2.27,2.27-2.27s2.27,1.02,2.27,2.27v10.61Zm.76-19.7c0,1.67-1.36,3.03-3.03,3.03s-3.03-1.36-3.03-3.03h0c0-1.67,1.36-3.03,3.03-3.03s3.03,1.36,3.03,3.03h0Z"/></g></g></svg>