<?xml version="1.0" encoding="utf-8"?>
<!-- Generator: Adobe Illustrator 27.9.0, SVG Export Plug-In . SVG Version: 6.00 Build 0)  -->
<svg version="1.1" id="Layer_2_00000027593525225975150950000005422614799235074444_"
	 xmlns="http://www.w3.org/2000/svg" xmlns:xlink="http://www.w3.org/1999/xlink" x="0px" y="0px" viewBox="0 0 50 50"
	 style="enable-background:new 0 0 50 50;" xml:space="preserve">
<style type="text/css">
	.st0{clip-path:url(#SVGID_00000033362910386765138090000011511866574261551547_);}
	.st1{clip-path:url(#SVGID_00000067232402047188732110000014341120167002867630_);}
	.st2{fill:#A5A5A5;}
</style>
<g id="Home_Page">
	<g id="Bottom_Nav_Area">
		<g>
			<defs>
				<rect id="SVGID_1_" x="4.4" width="41.2" height="50"/>
			</defs>
			<clipPath id="SVGID_00000134219595827749984010000015362707360796563894_">
				<use xlink:href="#SVGID_1_"  style="overflow:visible;"/>
			</clipPath>
			<g style="clip-path:url(#SVGID_00000134219595827749984010000015362707360796563894_);">
				<g>
					<defs>
						<circle id="SVGID_00000181805556858417521030000007997237848926163341_" cx="25.3" cy="25.3" r="24.6"/>
					</defs>
					<clipPath id="SVGID_00000038394080198336859610000014307613801656795813_">
						<use xlink:href="#SVGID_00000181805556858417521030000007997237848926163341_"  style="overflow:visible;"/>
					</clipPath>
					<g style="clip-path:url(#SVGID_00000038394080198336859610000014307613801656795813_);">
						<path class="st2" d="M38.3,20.5c-2.5,4.6-7.4,7.7-12.9,7.7s-10.4-3.1-12.9-7.7c-4.1,3.1-6.8,8-6.8,13.6v15.3
							c0,3.9,3.2,7.1,7.1,7.1h25.2c3.9,0,7.1-3.2,7.1-7.1V34.1C45,28.5,42.4,23.6,38.3,20.5L38.3,20.5z"/>
						<path class="st2" d="M27.5,16.4c3.2,0,6.2,1.1,8.6,2.9c1-1.8,1.5-3.8,1.5-5.9c0-6.8-5.5-12.3-12.3-12.3S13,6.6,13,13.4
							c0,2.1,0.6,4.2,1.5,5.9c2.4-1.8,5.4-2.9,8.6-2.9C23.1,16.4,27.5,16.4,27.5,16.4z"/>
						<path class="st2" d="M25.3,25.7c4.6,0,8.7-2.6,10.8-6.4c-2.4-1.8-5.4-2.9-8.6-2.9h-4.4c-3.2,0-6.2,1.1-8.6,2.9
							C16.6,23.1,20.7,25.7,25.3,25.7z"/>
					</g>
				</g>
			</g>
		</g>
	</g>
</g>
</svg>
