<?xml version="1.0" encoding="UTF-8"?><svg id="Layer_2" xmlns="http://www.w3.org/2000/svg" xmlns:xlink="http://www.w3.org/1999/xlink" viewBox="0 0 225 225"><defs><style>.cls-1{clip-path:url(#clippath);}.cls-2{fill:none;}.cls-2,.cls-3,.cls-4{stroke-width:0px;}.cls-3{fill:#621fcc;}.cls-4{fill:#fff;}</style><clipPath id="clippath"><circle class="cls-2" cx="112.5" cy="112.5" r="33.33"/></clipPath></defs><g id="Home_Page"><g id="Bottom_Nav_Area"><circle class="cls-4" cx="112.5" cy="112.5" r="112.5"/><g id="Ahoy_Capy_Logo"><g id="Sailor_Wheel"><rect class="cls-3" x="12.5" y="105" width="200" height="15" rx="7.5" ry="7.5" transform="translate(0 225) rotate(-90)"/><rect class="cls-3" x="12.5" y="105" width="200" height="15" rx="7.5" ry="7.5" transform="translate(225 225) rotate(180)"/><rect class="cls-3" x="12.5" y="105" width="200" height="15" rx="7.5" ry="7.5" transform="translate(271.6 112.5) rotate(135)"/><rect class="cls-3" x="12.5" y="105" width="200" height="15" rx="7.5" ry="7.5" transform="translate(112.5 -46.6) rotate(45)"/><path class="cls-3" d="m37.5,112.5c0,41.42,33.58,75,75,75s75-33.58,75-75-33.58-75-75-75S37.5,71.08,37.5,112.5Zm125,0c0,27.61-22.39,50-50,50s-50-22.39-50-50,22.39-50,50-50,50,22.39,50,50Z"/></g><circle class="cls-3" cx="112.5" cy="112.5" r="40"/><g class="cls-1"><g id="Capybara"><path class="cls-4" d="m121.54,138.24l-35.49,6.92c-.07.63-.08,1.27-.02,1.92,0,0-1.17,6.98,2.09,9.37,3.26,2.39,33.62,1.52,36.65-3.21,3.02-4.72,2.7-6.98,1.03-10.02-.93-1.69-2.7-3.87-4.9-5.55.41.4.64.57.64.57Z"/><path class="cls-4" d="m89.59,119.39c-.05-.56-.07-1.11-.06-1.65-.6.98-1.06,2.01-1.35,3.05-1.4,2.92-2.2,24.39-2.2,24.39h.06c.5-4.41,4.04-8,8.62-8.4l18.96-1.66c2.58-.23,5.13.93,7.27,2.56-.99-.95-3-3.21-5.3-7.54-2.41,2.04-5.45,3.38-8.83,3.67-8.72.76-16.41-5.69-17.18-14.41Z"/><path class="cls-4" d="m94.67,136.77c-4.58.4-8.12,3.99-8.62,8.39l35.49-6.92s-.23-.17-.64-.57c-2.14-1.63-4.69-2.78-7.27-2.56l-18.96,1.66Z"/><path class="cls-2" d="m94.68,104.4c-.65.51-1.26,1.07-1.82,1.68.56-.6,1.17-1.16,1.82-1.68Z"/><path class="cls-2" d="m108.31,103.19c-2.58.23-4.56,2.43-5.05,3.03-.07.08-.06.2.02.27,0,0,0,0,0,0,.08.07.2.06.27-.02.49-.55,1.47-1.5,2.73-2.13-.74.48-1.29,1.05-1.56,1.36-.11.13-.18.21-.18.21,0,0,1.09,1.02,2.55,1.45.49.15,1.03.23,1.58.18,2.19-.19,3.79-2.33,3.79-2.33,0,0-.07-.07-.21-.18-.31-.26-.96-.73-1.77-1.07,1.36.4,2.48,1.17,3.06,1.63.08.06.2.05.27-.03,0,0,0,0,0,0,.07-.08.06-.2-.02-.27-.46-.39-2.02-1.62-3.92-2.01-.5-.1-1.03-.15-1.57-.1Z"/><path class="cls-2" d="m133.63,107.08c.23-.23-.15-.99-.85-1.69-.7-.7-1.46-1.08-1.69-.85s.15.99.85,1.69,1.46,1.08,1.69.85Z"/><path class="cls-2" d="m92.86,106.07c-.56.6-1.07,1.25-1.53,1.92.46-.68.97-1.32,1.53-1.92Z"/><path class="cls-2" d="m135.37,106.61c.32.09.79-.62,1.04-1.58.26-.96.21-1.81-.11-1.89-.32-.09-.79.62-1.04,1.58-.26.96-.21,1.81.11,1.89Z"/><path class="cls-2" d="m99.02,100.48c-.89-.56-1.81-.97-2.69-1.29l-1.14.1c.19.06.37.11.57.17.8.27,1.64.63,2.48,1.09l.79-.07Z"/><path class="cls-4" d="m116.63,127.04c.08-.1.17-.2.25-.3-.11.07-.22.13-.32.2.03.03.05.06.08.1Z"/><path class="cls-4" d="m89.25,112.42c-.65,2.2-.82,4.56-.44,6.94.81-2.09,2.16-4.1,3.82-5.73-1.45.16-2.69-.17-3.38-1.21Z"/><path class="cls-4" d="m115.6,127.55c-8.86,5.72-17.54-5.97-18.07-15.82-1.6,1.02-3.37,1.74-4.9,1.9-1.67,1.63-3.01,3.64-3.82,5.73.09.54.2,1.08.34,1.62,2.27,8.46,10.96,13.48,19.42,11.21,3.28-.88,6.04-2.73,8.06-5.15-.03-.03-.05-.06-.08-.1-.32.2-.64.4-.96.61Z"/><path class="cls-4" d="m140.24,113.82c-.6,1.79-1.59,3.35-2.87,4.68"/><path class="cls-4" d="m119.78,112.77s0,.04.01.06l19.9-4.19-.68-6.41c-1.54-5.76-9.03-4.8-10.38-4.44,0,0-8.78-1.61-20.6,1.62.54.72,1.02,1.51,1.39,2.4,4.9,1.62,8.92,5.6,10.35,10.96Zm15.47-8.05c.26-.96.72-1.67,1.04-1.58.32.09.37.93.11,1.89-.26.96-.72,1.67-1.04,1.58-.32-.09-.37-.93-.11-1.89Zm-4.17-.19c.23-.23.99.15,1.69.85.7.7,1.08,1.46.85,1.69-.23.23-.99-.15-1.69-.85s-1.08-1.46-.85-1.69Z"/><path class="cls-4" d="m116.88,126.74c.24-.15.47-.28.7-.42l.05-.65c-.24.36-.48.73-.76,1.07Z"/><path class="cls-4" d="m118.69,113.06l1.11-.23s0-.04-.01-.06c-1.44-5.36-5.45-9.34-10.35-10.96.11.26.22.54.31.82.08.22.12.44.14.66,1.91.39,3.46,1.61,3.92,2.01.08.07.09.19.02.27,0,0,0,0,0,0-.07.08-.18.09-.27.03-.58-.46-1.71-1.23-3.06-1.63.81.34,1.45.81,1.77,1.07.14.11.21.18.21.18,0,0-1.6,2.13-3.79,2.33-.55.05-1.09-.03-1.58-.18-1.85,1.09-4.35,1.78-6.6,1.89-.2.22-.41.43-.63.65,3.6-.38,7.34,1.39,10.19,6.79,2.32,4.4,4.54,7.74,6.49,10.25.11-.07.22-.14.32-.2.27-.34.51-.71.76-1.07l1.05-12.6Z"/><path class="cls-4" d="m115.6,127.55c.32-.21.64-.41.96-.61-1.95-2.51-4.17-5.85-6.49-10.25-2.85-5.39-6.59-7.17-10.19-6.79-.7.67-1.5,1.29-2.35,1.83.53,9.85,9.21,21.54,18.07,15.82Z"/><path class="cls-4" d="m92.86,106.07c.56-.6,1.17-1.16,1.82-1.68,0-.16.03-.32.04-.48l-1.92.17-2.72.24c-.45.04-.87-.21-1.05-.63l-.98-2.25,2.53-.22,4.72-.41c.14-.47.29-.92.46-1.35-.19-.06-.38-.12-.57-.17l-4.99.44-2.01.18c-.09.27-.14.55-.11.86,0,0-1.83,6.94,1.13,11.6.01.02.03.04.04.06.46-1.58,1.17-3.07,2.08-4.43.46-.68.97-1.32,1.53-1.92Z"/><path class="cls-4" d="m92.63,113.63c1.43-1.4,3.11-2.52,4.88-3.17,0-.49.04-.98.09-1.46-1.42-.37-2.47-1.14-2.73-2.39-.15-.74-.21-1.48-.19-2.22-.65.51-1.26,1.07-1.82,1.68-.56.6-1.07,1.25-1.53,1.92-.92,1.36-1.62,2.85-2.08,4.43.7,1.04,1.94,1.37,3.38,1.21Z"/><path class="cls-4" d="m92.63,113.63c1.53-.17,3.29-.89,4.9-1.9-.02-.43-.03-.85-.02-1.27-1.77.65-3.44,1.77-4.88,3.17Z"/><path class="cls-4" d="m97.5,110.46c.77-.28,1.57-.47,2.37-.56.22-.21.43-.43.63-.65-1.05.05-2.05-.03-2.91-.25-.05.48-.08.96-.09,1.46Z"/><path class="cls-4" d="m97.53,111.73c.85-.54,1.65-1.16,2.35-1.83-.8.09-1.59.28-2.37.56,0,.42,0,.84.02,1.27Z"/><path class="cls-4" d="m109.43,101.81c-.38-.88-.86-1.68-1.39-2.4-.94.26-1.91.56-2.89.88l-.18.74c1.53.05,3.04.3,4.46.78Z"/><path class="cls-4" d="m104.66,102.32c-.1.44-.48.76-.93.8l-2.1.18s.06.06.09.1c1.37,1.69.54,3.91-1.22,5.85,2.26-.1,4.75-.8,6.6-1.89-1.46-.43-2.55-1.45-2.55-1.45,0,0,.06-.08.18-.21.26-.31.81-.88,1.56-1.36-1.27.63-2.24,1.58-2.73,2.13-.07.08-.19.08-.27.02,0,0,0,0,0,0-.08-.07-.09-.19-.02-.27.49-.59,2.47-2.8,5.05-3.03.54-.05,1.07,0,1.57.1-.02-.22-.07-.44-.14-.66-.09-.28-.2-.55-.31-.82-1.43-.47-2.93-.73-4.46-.78l-.31,1.29Z"/><path class="cls-4" d="m94.72,103.91c-.01.16-.04.32-.04.48.25-.19.51-.37.77-.55l-.73.06Z"/><path class="cls-4" d="m95.75,99.46c-.17.43-.32.88-.46,1.35l2.94-.26c-.83-.46-1.68-.82-2.48-1.09Z"/><path class="cls-4" d="m95.44,103.85c-.26.18-.52.35-.77.55-.02.74.04,1.48.19,2.22.26,1.25,1.31,2.02,2.73,2.39.24-2.11.95-4.02,2.19-5.53l-4.35.38Z"/><path class="cls-4" d="m101.73,103.41s-.06-.06-.09-.1l-.63.05-1.22.11c-1.24,1.51-1.95,3.43-2.19,5.53.86.22,1.86.3,2.91.25,1.77-1.94,2.59-4.16,1.22-5.85Z"/><path class="cls-4" d="m102.82,98.62l-6.49.57c.88.32,1.8.74,2.69,1.29l3.69-.32,2.32-.2c1.07-.36,2.13-.69,3.16-.97-.67-.89-1.42-1.66-2.17-2.3l-.4,1.69-2.79.24Z"/><path class="cls-4" d="m104.35,95.43c-1.42-.95-2.56-1.41-2.68-1.46.04.05.08.1.11.16l-3.55.31c-.08.15-.16.31-.21.49,0,0-.29.41-.7,1.11l4.58-.4,2.43-.21Z"/><path class="cls-4" d="m90.16,99.47c-.03-.36-.02-.72,0-1.07-.91.02-1.71.62-1.99,1.5l2.01-.18c-.01-.08-.02-.17-.03-.25Z"/><path class="cls-4" d="m90.57,101.22l-2.53.22.98,2.25c.18.41.6.67,1.05.63l2.72-.24c-.99-.71-1.77-1.7-2.23-2.86Z"/><path class="cls-4" d="m102.8,98.37c0,.08.01.17.02.25l2.79-.24.4-1.69c-.57-.49-1.13-.9-1.66-1.25l-2.43.21c.49.8.8,1.73.89,2.72Z"/><path class="cls-4" d="m102.92,101.09c-.17.02-.34.05-.52.07-.03.09-.08.18-.12.26.21-.11.41-.24.63-.34Z"/><path class="cls-4" d="m102.92,101.09c.69-.07,1.37-.08,2.04-.05l.18-.74c-.52.17-1.04.34-1.56.53-.23.08-.44.17-.66.26Z"/><path class="cls-4" d="m101.33,102.98c.1.11.21.21.3.33l2.1-.18c.45-.04.82-.36.93-.8l.31-1.29c-.68-.02-1.36-.01-2.04.05-.22.1-.42.22-.63.34-.24.56-.57,1.08-.96,1.55Z"/><path class="cls-4" d="m101.01,103.36l.63-.05c-.1-.12-.2-.22-.3-.33-.11.13-.21.26-.32.38Z"/><path class="cls-4" d="m102.55,100.73c.17-.02.35-.06.52-.07.21-.09.43-.18.66-.26.44-.16.86-.29,1.29-.44l-2.32.2c-.04.2-.1.38-.16.57Z"/><path class="cls-4" d="m101.67,93.97s-.02,0-.02,0c-1.05-1.05-2.74-.73-3.41.48l3.55-.31c-.03-.06-.08-.1-.11-.16Z"/><path class="cls-4" d="m90.57,101.22c.45,1.16,1.24,2.15,2.23,2.86l1.92-.17c.07-1.08.28-2.13.58-3.11l-4.72.41Z"/><path class="cls-4" d="m99.96,101.67c.29.23.58.48.85.74.44-.37.94-.69,1.48-.99.04-.09.08-.17.12-.26-.68.09-1.36.21-2.05.39-.14.04-.27.07-.4.11Z"/><path class="cls-4" d="m102.29,101.43c-.54.29-1.04.61-1.48.99.18.17.35.38.52.57.39-.47.71-.99.96-1.55Z"/><path class="cls-4" d="m99.96,101.67c-.56-.44-1.14-.8-1.73-1.12l-2.94.26c-.29.98-.51,2.03-.58,3.11l.73-.06c1.35-.94,2.86-1.69,4.51-2.18Z"/><path class="cls-4" d="m100.81,102.41c-.28-.27-.56-.51-.85-.74-1.66.49-3.16,1.24-4.51,2.18l4.35-.38c.31-.38.64-.73,1.02-1.05Z"/><path class="cls-4" d="m100.81,102.41c-.38.32-.71.68-1.02,1.05l1.22-.11c.12-.12.22-.25.32-.38-.17-.19-.34-.39-.52-.57Z"/><path class="cls-4" d="m100.51,101.12c.68-.18,1.36-.3,2.04-.39.06-.19.12-.38.16-.57l-3.69.32c.37.23.73.48,1.09.76.13-.04.27-.08.4-.11Z"/><path class="cls-4" d="m90.17,98.41c-.03.35-.04.71,0,1.07,0,.08.02.17.03.25l4.99-.44c-2.26-.67-4.06-.7-4.06-.7-.32-.14-.64-.19-.95-.18Z"/><path class="cls-4" d="m96.33,99.19l6.49-.57c0-.08,0-.17-.02-.25-.09-1-.4-1.92-.89-2.72l-4.58.4c-.42.73-.96,1.76-1.44,2.98.14.05.29.11.43.16Z"/><path class="cls-4" d="m117.58,126.4l6.69-2.56c5.13-.26,9.98-2.1,13.12-5.34-3.05.6-10.19,2.02-19.8,7.83v.07Z"/><path class="cls-4" d="m139.7,106.42l-19.9,6.41c1.21,4.57.28,9.19-2.16,12.84l-.05.65c9.61-5.8,16.74-7.22,19.8-7.83,1.28-1.33,1.09-1.7,2.87-4.68,1.78-2.98-.55-7.4-.55-7.4Z"/><path class="cls-4" d="m117.64,125.67c2.43-3.65,3.36-8.27,2.16-12.84l-1.11.23-1.05,12.6Z"/></g></g></g></g></g></svg>