<?xml version="1.0" encoding="utf-8"?>
<!-- Generator: Adobe Illustrator 27.9.0, SVG Export Plug-In . SVG Version: 6.00 Build 0)  -->
<svg version="1.1" id="Layer_2_00000105408471201160825070000003405540194480821646_"
	 xmlns="http://www.w3.org/2000/svg" xmlns:xlink="http://www.w3.org/1999/xlink" x="0px" y="0px" viewBox="0 0 56 56"
	 style="enable-background:new 0 0 56 56;" xml:space="preserve">
<style type="text/css">
	.st0{fill:#FFFFFF;}
</style>
<g id="Filters">
	<g id="Filters-2">
		<g id="Payments_Accepted_Area">
			<g id="Payments_Area">
				<g id="List_of_Payments">
					<g id="Cash_Area">
						<path class="st0" d="M49,14H7c-3.9,0-7,3.1-7,7v14c0,3.9,3.1,7,7,7h42c3.9,0,7-3.1,7-7V21C56,17.1,52.9,14,49,14z M18.7,28
							c0,1.2-0.9,2.1-2.1,2.1H6.8c-1.2,0-2.1-0.9-2.1-2.1l0,0c0-1.2,0.9-2.1,2.1-2.1h9.8C17.8,25.9,18.7,26.8,18.7,28L18.7,28z
							 M28,35c-3.9,0-7-3.1-7-7s3.1-7,7-7s7,3.1,7,7S31.9,35,28,35z M51.3,28c0,1.2-0.9,2.1-2.1,2.1h-9.8c-1.2,0-2.1-0.9-2.1-2.1
							l0,0c0-1.2,0.9-2.1,2.1-2.1h9.8C50.4,25.9,51.3,26.8,51.3,28L51.3,28z"/>
					</g>
				</g>
			</g>
		</g>
	</g>
</g>
</svg>
