<?xml version="1.0" encoding="UTF-8"?><svg id="Layer_2" xmlns="http://www.w3.org/2000/svg" viewBox="0 0 50 50"><defs><style>.cls-1{fill:#a53c41;stroke-width:0px;}</style></defs><g id="Account_Settings"><g id="Close_Account"><path class="cls-1" d="m25,0C11.19,0,0,11.19,0,25s11.19,25,25,25,25-11.19,25-25S38.81,0,25,0Zm0,7.5c3.48,0,6.71,1.01,9.44,2.76l-24.18,24.18c-1.75-2.72-2.76-5.96-2.76-9.44,0-9.66,7.84-17.5,17.5-17.5Zm0,35c-3.48,0-6.71-1.01-9.44-2.76l24.18-24.18c1.75,2.72,2.76,5.96,2.76,9.44,0,9.66-7.84,17.5-17.5,17.5Z"/></g></g></svg>