<?xml version="1.0" encoding="utf-8"?>
<!-- Generator: Adobe Illustrator 27.9.0, SVG Export Plug-In . SVG Version: 6.00 Build 0)  -->
<svg version="1.1" id="Layer_2_00000072250865025711298090000016012066691353813933_"
	 xmlns="http://www.w3.org/2000/svg" xmlns:xlink="http://www.w3.org/1999/xlink" x="0px" y="0px" viewBox="0 0 61.1 61.1"
	 style="enable-background:new 0 0 61.1 61.1;" xml:space="preserve">
<style type="text/css">
	.st0{fill:#777777;}
</style>
<g id="Create_Account">
	<path class="st0" d="M31.9,45.3c0-7.8,5.8-14.2,13.3-15.2c-1.4-2.2-3.1-4.1-5.2-5.7c-3.1,5.6-9,9.4-15.9,9.4S11.4,30,8.3,24.4
		C3.2,28.2,0,34.3,0,41.1v7.4c5.5,7.3,14.3,12.1,24.2,12.1c4.9,0,9.5-1.2,13.6-3.2C34.2,54.5,31.9,50.2,31.9,45.3L31.9,45.3z"/>
	<path class="st0" d="M24.2,30.8c5.7,0,10.7-3.2,13.3-7.8c1.2-2.2,1.9-4.6,1.9-7.3c0-8.4-6.8-15.1-15.1-15.1S9.1,7.3,9.1,15.7
		c0,2.6,0.7,5.1,1.9,7.3C13.5,27.6,18.5,30.8,24.2,30.8L24.2,30.8z"/>
	<path class="st0" d="M48.9,31.6c-0.5-0.1-1.1-0.1-1.7-0.1c-0.6,0-1.2,0-1.8,0.1c-6.8,0.9-12,6.7-12,13.7c0,4.4,2.1,8.3,5.3,10.8
		c2.3,1.9,5.3,3,8.6,3c0.6,0,1.1,0,1.7-0.1c6.8-0.8,12.2-6.7,12.2-13.7S55.8,32.4,48.9,31.6L48.9,31.6z M52.7,46.8h-4v4
		c0,0.8-0.7,1.5-1.5,1.5c-0.7,0-1.3-0.5-1.5-1.2c0-0.1,0-0.2,0-0.3v-4h-4c-0.8,0-1.5-0.7-1.5-1.5s0.7-1.5,1.5-1.5h4v-4
		c0-0.8,0.7-1.5,1.5-1.5c0.3,0,0.5,0.1,0.8,0.2c0.4,0.3,0.7,0.7,0.7,1.2v4h4c0.8,0,1.5,0.7,1.5,1.5S53.5,46.8,52.7,46.8z"/>
</g>
</svg>
