<?xml version="1.0" encoding="utf-8"?>
<!-- Generator: Adobe Illustrator 27.9.0, SVG Export Plug-In . SVG Version: 6.00 Build 0)  -->
<svg version="1.1" id="Layer_2_00000115483509664047865880000014269919678878588324_"
	 xmlns="http://www.w3.org/2000/svg" xmlns:xlink="http://www.w3.org/1999/xlink" x="0px" y="0px" viewBox="0 0 56 56"
	 style="enable-background:new 0 0 56 56;" xml:space="preserve">
<style type="text/css">
	.st0{fill:#621FCC;}
</style>
<g id="Home_Page">
	<g id="Category_Area">
		<g id="Categories">
			<g id="Drinks_Icon">
				<g id="Leisure">
					<path class="st0" d="M17.6,0h20.8c1.1,0,2,0.9,2,2v16.6c0,6.8-5.5,12.4-12.4,12.4l0,0c-6.8,0-12.4-5.5-12.4-12.4V2
						C15.6,0.9,16.5,0,17.6,0z"/>
					<rect x="26.5" y="30.2" class="st0" width="3.1" height="24.7"/>
					<path class="st0" d="M18.7,54.5L18.7,54.5c0-0.9,0.7-1.5,1.5-1.5h15.4c0.9,0,1.5,0.7,1.5,1.5l0,0c0,0.9-0.7,1.5-1.5,1.5H20.3
						C19.4,56,18.7,55.3,18.7,54.5z"/>
				</g>
			</g>
		</g>
	</g>
</g>
</svg>
