<?xml version="1.0" encoding="utf-8"?>
<!-- Generator: Adobe Illustrator 27.9.0, SVG Export Plug-In . SVG Version: 6.00 Build 0)  -->
<svg version="1.1" id="Layer_2_00000170977018901892086280000003738695031657673893_"
	 xmlns="http://www.w3.org/2000/svg" xmlns:xlink="http://www.w3.org/1999/xlink" x="0px" y="0px" viewBox="0 0 27.3 27.3"
	 style="enable-background:new 0 0 27.3 27.3;" xml:space="preserve">
<style type="text/css">
	.st0{fill:#621FCC;}
</style>
<g id="Home_Page">
	<g id="Item_Area">
		<g id="Item_Area-2">
			<path class="st0" d="M13.2,16.5l-9-3.6v6.4c0,0.8,0.5,1.5,1.2,1.9l7.5,3.3c0.5,0.2,1.1,0.2,1.6,0l7.5-3.3c0.7-0.3,1.2-1,1.2-1.9
				v-6.4l-9,3.6C13.9,16.7,13.5,16.7,13.2,16.5C13.2,16.5,13.2,16.5,13.2,16.5z"/>
			<path class="st0" d="M0.7,11.5v3.9c0,0.7,0.6,1.3,1.3,1.3s1.3-0.6,1.3-1.3v-2.8l-2.4-1C0.8,11.6,0.7,11.5,0.7,11.5L0.7,11.5
				L0.7,11.5z"/>
			<path class="st0" d="M26.5,7.7L14.2,2.8c-0.3-0.1-0.7-0.1-1,0L0.8,7.7c-1.1,0.4-1.1,1.9-0.1,2.4c0,0,0.1,0,0.1,0.1l2.4,1l0.9,0.4
				l9,3.6c0.3,0.1,0.7,0.1,1,0l9-3.6l3.3-1.3C27.6,9.8,27.6,8.2,26.5,7.7L26.5,7.7L26.5,7.7z"/>
		</g>
	</g>
</g>
</svg>
