<?xml version="1.0" encoding="utf-8"?>
<!-- Generator: Adobe Illustrator 27.9.0, SVG Export Plug-In . SVG Version: 6.00 Build 0)  -->
<svg version="1.1" id="Layer_2_00000072281510727369231010000014466002855192752806_"
	 xmlns="http://www.w3.org/2000/svg" xmlns:xlink="http://www.w3.org/1999/xlink" x="0px" y="0px" viewBox="0 0 49.9 49.9"
	 style="enable-background:new 0 0 49.9 49.9;" xml:space="preserve">
<style type="text/css">
	.st0{fill:#A5A5A5;}
</style>
<g id="Create_Account">
	<g id="Email">
		<path class="st0" d="M47.4,9.9L27.2,28c-1.3,1.1-3.2,1.1-4.5,0L2.4,9.9C1,10.8,0,12.3,0,14.2v23.3c0,2.8,2.2,5,5,5h39.9
			c2.8,0,5-2.2,5-5V14.2C49.9,12.3,48.9,10.8,47.4,9.9z"/>
		<path class="st0" d="M26.8,23L43.6,8c-0.6-0.4-1.3-0.6-2.1-0.6H8.4C7.6,7.4,6.9,7.7,6.3,8l16.8,15C24.1,24,25.8,24,26.8,23z"/>
	</g>
</g>
</svg>
