<?xml version="1.0" encoding="utf-8"?>
<!-- Generator: Adobe Illustrator 27.9.0, SVG Export Plug-In . SVG Version: 6.00 Build 0)  -->
<svg version="1.1" id="Layer_2_00000068667525631395765220000009418601607684273033_"
	 xmlns="http://www.w3.org/2000/svg" xmlns:xlink="http://www.w3.org/1999/xlink" x="0px" y="0px" viewBox="0 0 29.4 29.4"
	 style="enable-background:new 0 0 29.4 29.4;" xml:space="preserve">
<style type="text/css">
	.st0{fill:#FFFFFF;}
</style>
<g id="Filters">
	<g id="Filters-2">
		<g id="Other_Area">
			<g id="Other">
				<g id="Family_Friendly">
					<path class="st0" d="M9,8.5c-0.7,1.3-2,2.1-3.6,2.1S2.6,9.8,1.9,8.5C0.7,9.4,0,10.8,0,12.3v4.2c0,1.1,0.9,2,2,2h7
						c1.1,0,1.9-0.9,1.9-2v-4.2C10.9,10.8,10.1,9.4,9,8.5L9,8.5z"/>
					<path class="st0" d="M6,7.4c0.9,0,1.7,0.3,2.4,0.8c0.3-0.5,0.4-1,0.4-1.6c0-1.9-1.5-3.4-3.4-3.4S2,4.7,2,6.6
						c0,0.6,0.2,1.2,0.4,1.6c0.7-0.5,1.5-0.8,2.4-0.8H6L6,7.4z"/>
					<path class="st0" d="M5.4,10c1.3,0,2.4-0.7,3-1.8C7.8,7.7,6.9,7.4,6.1,7.4H4.8C4,7.4,3.1,7.7,2.5,8.2C3.1,9.3,4.2,10,5.4,10
						L5.4,10z"/>
					<path class="st0" d="M27.5,8.5c-0.7,1.3-2,2.1-3.6,2.1S21,9.8,20.4,8.5c-1.1,0.9-1.9,2.2-1.9,3.8v4.2c0,1.1,0.9,2,2,2h7
						c1.1,0,2-0.9,2-2v-4.2C29.4,10.8,28.6,9.4,27.5,8.5L27.5,8.5z"/>
					<path class="st0" d="M24.5,7.4c0.9,0,1.7,0.3,2.4,0.8c0.3-0.5,0.4-1,0.4-1.6c0-1.9-1.5-3.4-3.4-3.4s-3.4,1.5-3.4,3.4
						c0,0.6,0.1,1.2,0.4,1.6c0.7-0.5,1.5-0.8,2.4-0.8H24.5L24.5,7.4z"/>
					<path class="st0" d="M23.9,10c1.3,0,2.4-0.7,3-1.8c-0.7-0.5-1.5-0.8-2.4-0.8h-1.2c-0.9,0-1.7,0.3-2.4,0.8
						C21.5,9.3,22.7,10,23.9,10L23.9,10z"/>
					<path class="st0" d="M17.3,18.9c-0.5,0.9-1.5,1.5-2.6,1.5s-2.1-0.6-2.6-1.5c-0.8,0.6-1.4,1.6-1.4,2.7v3.1
						c0,0.8,0.6,1.4,1.4,1.4h5.1c0.8,0,1.4-0.6,1.4-1.4v-3.1C18.7,20.6,18.1,19.6,17.3,18.9L17.3,18.9z"/>
					<path class="st0" d="M15.1,18.1c0.6,0,1.2,0.2,1.7,0.6c0.2-0.4,0.3-0.8,0.3-1.2c0-1.4-1.1-2.5-2.5-2.5s-2.5,1.1-2.5,2.5
						c0,0.4,0.1,0.8,0.3,1.2c0.5-0.4,1.1-0.6,1.7-0.6L15.1,18.1L15.1,18.1z"/>
					<path class="st0" d="M14.7,20c0.9,0,1.8-0.5,2.2-1.3c-0.5-0.4-1.1-0.6-1.7-0.6h-0.9c-0.6,0-1.2,0.2-1.7,0.6
						C12.9,19.5,13.8,20,14.7,20L14.7,20z"/>
				</g>
			</g>
		</g>
	</g>
</g>
</svg>
