<?xml version="1.0" encoding="utf-8"?>
<!-- Generator: Adobe Illustrator 27.9.0, SVG Export Plug-In . SVG Version: 6.00 Build 0)  -->
<svg version="1.1" id="Layer_2_00000061436509742203708170000003442171101337965440_"
	 xmlns="http://www.w3.org/2000/svg" xmlns:xlink="http://www.w3.org/1999/xlink" x="0px" y="0px" viewBox="0 0 48.8 48.8"
	 style="enable-background:new 0 0 48.8 48.8;" xml:space="preserve">
<style type="text/css">
	.st0{fill:#3D3D3D;}
</style>
<g id="Home_Page">
	<g id="Filter_Area">
		<g id="Filters_Icon">
			<path class="st0" d="M2.4,8.1h44c1.3,0,2.4,1.1,2.4,2.4l0,0c0,1.3-1.1,2.4-2.4,2.4h-44C1.1,13,0,11.9,0,10.5l0,0
				C0,9.2,1.1,8.1,2.4,8.1z"/>
			<circle class="st0" cx="10.2" cy="10.5" r="4.9"/>
			<path class="st0" d="M2.4,22h44c1.3,0,2.4,1.1,2.4,2.4v0c0,1.3-1.1,2.4-2.4,2.4h-44c-1.3,0-2.4-1.1-2.4-2.4v0
				C0,23.1,1.1,22,2.4,22z"/>
			<circle class="st0" cx="40.3" cy="24.4" r="4.9"/>
			<path class="st0" d="M2.4,35.8h44c1.3,0,2.4,1.1,2.4,2.4v0c0,1.3-1.1,2.4-2.4,2.4h-44c-1.3,0-2.4-1.1-2.4-2.4v0
				C0,36.9,1.1,35.8,2.4,35.8z"/>
			<circle class="st0" cx="19.9" cy="38.3" r="4.9"/>
		</g>
	</g>
</g>
</svg>
