<?xml version="1.0" encoding="utf-8"?>
<!-- Generator: Adobe Illustrator 27.9.0, SVG Export Plug-In . SVG Version: 6.00 Build 0)  -->
<svg version="1.1" id="Layer_2_00000059999370907607429740000018148584615755239305_"
	 xmlns="http://www.w3.org/2000/svg" xmlns:xlink="http://www.w3.org/1999/xlink" x="0px" y="0px" viewBox="0 0 56 56"
	 style="enable-background:new 0 0 56 56;" xml:space="preserve">
<style type="text/css">
	.st0{fill:#621FCC;}
</style>
<g id="Home_Page">
	<g id="Category_Area">
		<g id="Categories">
			<g id="Food_Icon">
				<g id="Food_Icon-2">
					<g id="Spoon_Icon">
						<ellipse class="st0" cx="17.1" cy="11.2" rx="7.4" ry="11.2"/>
						<path class="st0" d="M17.1,56L17.1,56c-1.7,0-3.1-2-3-4.3L15,21.2h4.2L20,51.7C20.1,54,18.8,56,17.1,56z"/>
					</g>
					<g id="Fork_Icon">
						<path class="st0" d="M42.7,1.8v11.7c0,0.6-0.4,1-1,1l0,0c-0.5,0-1-0.4-1-1V1.8c0-1-0.8-1.7-1.7-1.7l0,0c-1,0-1.7,0.8-1.7,1.7
							v11.7c0,0.6-0.4,1-1,1l0,0c-0.5,0-1-0.4-1-1V1.8c0-1-0.8-1.7-1.7-1.7h-0.2c-1,0-1.7,0.8-1.7,1.7v12.7c0,4.1,3.3,7.4,7.4,7.4
							l0,0c4.1,0,7.5-3.3,7.5-7.4V1.8c0-1-0.8-1.7-1.7-1.7h-0.2C43.5,0,42.7,0.8,42.7,1.8z"/>
						<path class="st0" d="M38.9,56L38.9,56c-1.7,0-3.1-2-3-4.3l0.9-30.4h4.2l0.9,30.4C42,54,40.6,56,38.9,56z"/>
					</g>
				</g>
			</g>
		</g>
	</g>
</g>
</svg>
