<?xml version="1.0" encoding="UTF-8"?><svg id="Layer_2" xmlns="http://www.w3.org/2000/svg" xmlns:xlink="http://www.w3.org/1999/xlink" viewBox="0 0 21.18 40"><defs><style>.cls-1{clip-path:url(#clippath);}.cls-2{fill:none;}.cls-2,.cls-3{stroke-width:0px;}.cls-3{fill:#f4e878;}</style><clipPath id="clippath"><rect class="cls-2" width="21.18" height="40"/></clipPath></defs><g id="Home_Page"><g id="Item_Area"><g id="Item_Area-2"><g class="cls-1"><path class="cls-3" d="m15.19,11l3.36-6.68c1.19-2.36,4.57-2.34,5.73.04l3.26,6.73c.46.95,1.35,1.61,2.39,1.76l7.39,1.13c2.62.4,3.64,3.63,1.73,5.46l-5.39,5.18c-.76.73-1.11,1.78-.94,2.82l1.21,7.38c.43,2.61-2.32,4.58-4.66,3.33l-6.59-3.53c-.93-.5-2.04-.5-2.97-.02l-6.64,3.43c-2.35,1.21-5.07-.8-4.61-3.4l1.32-7.36c.19-1.03-.15-2.09-.9-2.83l-5.32-5.26c-1.88-1.86-.81-5.07,1.81-5.43l7.41-1.02c1.04-.14,1.94-.79,2.42-1.73Z"/></g></g></g></g></svg>