<?xml version="1.0" encoding="utf-8"?>
<!-- Generator: Adobe Illustrator 27.9.0, SVG Export Plug-In . SVG Version: 6.00 Build 0)  -->
<svg version="1.1" id="Layer_2_00000050641049726104223010000006258750114867097257_"
	 xmlns="http://www.w3.org/2000/svg" xmlns:xlink="http://www.w3.org/1999/xlink" x="0px" y="0px" viewBox="0 0 50 50"
	 style="enable-background:new 0 0 50 50;" xml:space="preserve">
<style type="text/css">
	.st0{fill:#3D3D3D;}
</style>
<g id="Account_Settings">
	<g id="History">
		<path class="st0" d="M23.5,0C15.3,0,8,3.9,3.5,10h6.8c3.6-3.1,8.2-5,13.4-5c11.1,0.1,20,9.2,19.8,20.3C43.3,36.2,34.4,45,23.5,45
			c-4.8,0-9.1-1.7-12.6-4.4c-0.4-0.4-1-0.6-1.6-0.6l0,0c-2.4,0-3.4,3-1.6,4.5C12,47.9,17.5,50,23.5,50c13.7,0,24.8-10.9,25-24.5
			S37.4,0,23.5,0z"/>
		<path class="st0" d="M7.6,18.5l5-5.6c1.1-1.2,0.5-3.2-1.1-3.6L4.1,7.8c-1.6-0.3-3,1.2-2.5,2.8L4,17.7C4.5,19.3,6.5,19.7,7.6,18.5
			L7.6,18.5z"/>
		<path class="st0" d="M32,30.6L32,30.6c0-1-0.8-1.9-1.9-1.9h-9.4v-9.4c0-1-0.8-1.9-1.9-1.9l0,0c-1,0-1.9,0.8-1.9,1.9v9.4l0,0
			c0,2.1,1.7,3.8,3.8,3.8h9.4C31.2,32.5,32,31.7,32,30.6L32,30.6z"/>
	</g>
</g>
</svg>
