<?xml version="1.0" encoding="utf-8"?>
<!-- Generator: Adobe Illustrator 27.9.0, SVG Export Plug-In . SVG Version: 6.00 Build 0)  -->
<svg version="1.1" id="Layer_2_00000022545467917412230760000016113323034609528710_"
	 xmlns="http://www.w3.org/2000/svg" xmlns:xlink="http://www.w3.org/1999/xlink" x="0px" y="0px" viewBox="0 0 55 55"
	 style="enable-background:new 0 0 55 55;" xml:space="preserve">
<style type="text/css">
	.st0{fill:#A5A5A5;}
</style>
<g id="Home_Page">
	<g id="Bottom_Nav_Area">
		<g id="Home_Bottom_Nav_Icon_Area">
			<path class="st0" d="M6.9,25.1v24.6c0,1.5,1.2,2.8,2.8,2.8h8.2c1.5,0,2.8-1.2,2.8-2.8v-15c0-1.5,1.3-2.8,2.8-2.8h8.1
				c1.5,0,2.8,1.3,2.8,2.8v15c0,1.5,1.2,2.8,2.8,2.8h8.2c1.5,0,2.8-1.2,2.8-2.8V25.1H6.9z"/>
			<path class="st0" d="M48.1,25l-19-12.7c-1-0.6-2.2-0.6-3.2,0L6.9,25v0.1h41.3L48.1,25L48.1,25z"/>
			<path class="st0" d="M25.6,8.9c1.1-0.8,2.6-0.8,3.8,0l23.1,15.4v0.2l0,0c2.5,0,3.4-3.2,1.4-4.6L27.5,2.5L1.1,19.9
				c-2.1,1.4-1.1,4.6,1.4,4.6l0,0v-0.2L25.6,8.9z"/>
		</g>
	</g>
</g>
</svg>
