<?xml version="1.0" encoding="utf-8"?>
<!-- Generator: Adobe Illustrator 27.9.0, SVG Export Plug-In . SVG Version: 6.00 Build 0)  -->
<svg version="1.1" id="Layer_2_00000106143459688537503500000000033028716857639863_"
	 xmlns="http://www.w3.org/2000/svg" xmlns:xlink="http://www.w3.org/1999/xlink" x="0px" y="0px" viewBox="0 0 77.3 77.3"
	 style="enable-background:new 0 0 77.3 77.3;" xml:space="preserve">
<style type="text/css">
	.st0{fill:#FFFFFF;}
</style>
<g id="Home_Page">
	<g id="Category_Area">
		<g id="Categories">
			<g id="Leisure_Icon">
				<g id="Leisure">
					<g id="Movie_Icon">
						<path class="st0" d="M28,10.6c-15.5,0-28,12.5-28,28s12.5,28,28,28s28-12.5,28-28S43.5,10.6,28,10.6z M16.8,55.4
							c-3.1,0-5.6-2.5-5.6-5.6s2.5-5.6,5.6-5.6s5.6,2.5,5.6,5.6S19.9,55.4,16.8,55.4z M16.8,33c-3.1,0-5.6-2.5-5.6-5.6
							s2.5-5.6,5.6-5.6s5.6,2.5,5.6,5.6S19.9,33,16.8,33z M28,41.4c-1.5,0-2.8-1.2-2.8-2.8s1.2-2.8,2.8-2.8s2.8,1.2,2.8,2.8
							S29.5,41.4,28,41.4z M39.2,55.4c-3.1,0-5.6-2.5-5.6-5.6s2.5-5.6,5.6-5.6s5.6,2.5,5.6,5.6S42.3,55.4,39.2,55.4z M39.2,33
							c-3.1,0-5.6-2.5-5.6-5.6s2.5-5.6,5.6-5.6s5.6,2.5,5.6,5.6S42.3,33,39.2,33z"/>
						<path class="st0" d="M18.5,58.8h56c1.6,0,2.8,1.2,2.8,2.8l0,0c0,1.5-1.2,2.8-2.8,2.8h-56c-1.5,0-2.8-1.3-2.8-2.8l0,0
							C15.7,60,16.9,58.8,18.5,58.8z"/>
					</g>
				</g>
			</g>
		</g>
	</g>
</g>
</svg>
