<?xml version="1.0" encoding="utf-8"?>
<!-- Generator: Adobe Illustrator 27.9.0, SVG Export Plug-In . SVG Version: 6.00 Build 0)  -->
<svg version="1.1" id="Layer_2_00000051346028997562448420000014462992043810144426_"
	 xmlns="http://www.w3.org/2000/svg" xmlns:xlink="http://www.w3.org/1999/xlink" x="0px" y="0px" viewBox="0 0 677.4 677.4"
	 style="enable-background:new 0 0 677.4 677.4;" xml:space="preserve">
<style type="text/css">
	.st0{fill:#621FCC;}
	.st1{clip-path:url(#SVGID_00000048495458186248364370000005321705238358649749_);}
	.st2{fill:#FFFFFF;}
	.st3{fill:none;}
	.st4{font-family:'Joost-Stencil';}
	.st5{font-size:96px;}
	.st6{font-size:200px;}
	.st7{font-size:144px;}
</style>
<g id="Create_Account">
	<g id="Ahoy_Capy_Logo">
		<g id="Ahoy_Capy_Logo-2">
			<g id="Ahoy_Capy_Logo-3">
				<g id="Sailor_Wheel">
					<path class="st0" d="M150,188.7L150,188.7c6.2,0,11.2,5,11.2,11.2v277.5c0,6.2-5,11.2-11.2,11.2l0,0c-6.2,0-11.2-5-11.2-11.2
						V199.9C138.8,193.7,143.8,188.7,150,188.7z"/>
					<path class="st0" d="M11.2,327.4h277.5c6.2,0,11.2,5,11.2,11.2l0,0c0,6.2-5,11.2-11.2,11.2H11.2c-6.2,0-11.2-5-11.2-11.2l0,0
						C0,332.5,5,327.4,11.2,327.4z"/>
					<path class="st0" d="M43.9,428.8l196.2-196.2c4.4-4.4,11.5-4.4,15.9,0l0,0c4.4,4.4,4.4,11.5,0,15.9L59.8,444.7
						c-4.4,4.4-11.5,4.4-15.9,0l0,0C39.5,440.4,39.5,433.2,43.9,428.8z"/>
					<path class="st0" d="M43.9,232.6L43.9,232.6c4.4-4.4,11.5-4.4,15.9,0l196.2,196.2c4.4,4.4,4.4,11.5,0,15.9l0,0
						c-4.4,4.4-11.5,4.4-15.9,0L43.9,248.5C39.5,244.1,39.5,237,43.9,232.6z"/>
					<path class="st0" d="M37.5,338.7c0,62.1,50.4,112.5,112.5,112.5s112.5-50.4,112.5-112.5S212.1,226.2,150,226.2
						S37.5,276.5,37.5,338.7z M225,338.7c0,41.4-33.6,75-75,75s-75-33.6-75-75s33.6-75,75-75S225,297.3,225,338.7z"/>
				</g>
				<circle class="st0" cx="150" cy="338.7" r="60"/>
				<g>
					<defs>
						<circle id="SVGID_1_" cx="150" cy="338.7" r="50"/>
					</defs>
					<clipPath id="SVGID_00000025412635538595658830000006693647086871004323_">
						<use xlink:href="#SVGID_1_"  style="overflow:visible;"/>
					</clipPath>
					<g style="clip-path:url(#SVGID_00000025412635538595658830000006693647086871004323_);">
						<g id="Capybara">
							<path class="st2" d="M163.6,377.3l-53.2,10.4c-0.1,0.9-0.1,1.9,0,2.9c0,0-1.8,10.5,3.1,14c4.9,3.6,50.4,2.3,55-4.8
								c4.5-7.1,4.1-10.5,1.6-15c-1.4-2.5-4.1-5.8-7.4-8.3C163.2,377,163.6,377.3,163.6,377.3L163.6,377.3z"/>
							<path class="st2" d="M115.6,349c-0.1-0.8-0.1-1.7-0.1-2.5c-0.9,1.5-1.6,3-2,4.6c-2.1,4.4-3.3,36.6-3.3,36.6l0.1,0
								c0.8-6.6,6.1-12,12.9-12.6l28.4-2.5c3.9-0.3,7.7,1.4,10.9,3.8c-1.5-1.4-4.5-4.8-7.9-11.3c-3.6,3.1-8.2,5.1-13.2,5.5
								C128.3,371.8,116.8,362.1,115.6,349z"/>
							<path class="st2" d="M123.3,375.1c-6.9,0.6-12.2,6-12.9,12.6l53.2-10.4c0,0-0.4-0.3-1-0.9c-3.2-2.4-7-4.2-10.9-3.8
								L123.3,375.1z"/>
							<path class="st3" d="M123.3,326.5c-1,0.8-1.9,1.6-2.7,2.5C121.4,328.1,122.3,327.3,123.3,326.5z"/>
							<path class="st3" d="M143.7,324.7c-3.9,0.3-6.8,3.6-7.6,4.5c-0.1,0.1-0.1,0.3,0,0.4l0,0c0.1,0.1,0.3,0.1,0.4,0
								c0.7-0.8,2.2-2.2,4.1-3.2c-1.1,0.7-1.9,1.6-2.3,2c-0.2,0.2-0.3,0.3-0.3,0.3s1.6,1.5,3.8,2.2c0.7,0.2,1.6,0.3,2.4,0.3
								c3.3-0.3,5.7-3.5,5.7-3.5s-0.1-0.1-0.3-0.3c-0.5-0.4-1.4-1.1-2.6-1.6c2,0.6,3.7,1.8,4.6,2.4c0.1,0.1,0.3,0.1,0.4,0l0,0
								c0.1-0.1,0.1-0.3,0-0.4c-0.7-0.6-3-2.4-5.9-3C145.3,324.7,144.5,324.6,143.7,324.7L143.7,324.7z"/>
							<path class="st3" d="M181.7,330.5c0.4-0.4-0.2-1.5-1.3-2.5c-1.1-1.1-2.2-1.6-2.5-1.3c-0.3,0.4,0.2,1.5,1.3,2.5
								S181.3,330.9,181.7,330.5z"/>
							<path class="st3" d="M120.5,329c-0.8,0.9-1.6,1.9-2.3,2.9C118.9,330.9,119.7,329.9,120.5,329z"/>
							<path class="st3" d="M184.3,329.9c0.5,0.1,1.2-0.9,1.6-2.4c0.4-1.4,0.3-2.7-0.2-2.8c-0.5-0.1-1.2,0.9-1.6,2.4
								C183.7,328.5,183.8,329.7,184.3,329.9z"/>
							<path class="st3" d="M129.8,320.6c-1.3-0.8-2.7-1.5-4-1.9l-1.7,0.1c0.3,0.1,0.6,0.2,0.8,0.3c1.2,0.4,2.5,0.9,3.7,1.6
								L129.8,320.6L129.8,320.6z"/>
							<path class="st2" d="M156.2,360.5c0.1-0.1,0.2-0.3,0.4-0.4c-0.2,0.1-0.3,0.2-0.5,0.3C156.1,360.4,156.2,360.4,156.2,360.5z"
								/>
							<path class="st2" d="M115.1,338.6c-1,3.3-1.2,6.8-0.7,10.4c1.2-3.1,3.2-6.1,5.7-8.6C118,340.6,116.2,340.1,115.1,338.6z"/>
							<path class="st2" d="M154.6,361.2c-13.3,8.6-26.3-9-27.1-23.7c-2.4,1.5-5.1,2.6-7.3,2.9c-2.5,2.4-4.5,5.5-5.7,8.6
								c0.1,0.8,0.3,1.6,0.5,2.4c3.4,12.7,16.4,20.2,29.1,16.8c4.9-1.3,9.1-4.1,12.1-7.7c0-0.1-0.1-0.1-0.1-0.1
								C155.6,360.6,155.1,360.9,154.6,361.2L154.6,361.2z"/>
							<path class="st2" d="M191.6,340.7c-0.9,2.7-2.4,5-4.3,7"/>
							<path class="st2" d="M160.9,339.1C160.9,339.1,160.9,339.1,160.9,339.1l29.9-6.2l-1-9.6c-2.3-8.6-13.5-7.2-15.6-6.7
								c0,0-13.2-2.4-30.9,2.4c0.8,1.1,1.5,2.3,2.1,3.6C152.8,325.1,158.8,331,160.9,339.1L160.9,339.1z M184.1,327
								c0.4-1.4,1.1-2.5,1.6-2.4c0.5,0.1,0.6,1.4,0.2,2.8s-1.1,2.5-1.6,2.4C183.8,329.7,183.7,328.4,184.1,327z M177.9,326.7
								c0.4-0.4,1.5,0.2,2.5,1.3c1.1,1,1.6,2.2,1.3,2.5c-0.4,0.4-1.5-0.2-2.5-1.3C178.1,328.2,177.5,327.1,177.9,326.7z"/>
							<path class="st2" d="M156.6,360c0.4-0.2,0.7-0.4,1.1-0.6l0.1-1C157.3,359,157,359.5,156.6,360z"/>
							<path class="st2" d="M159.3,339.5l1.7-0.4c0,0,0-0.1,0-0.1c-2.1-8-8.2-14-15.5-16.4c0.2,0.4,0.3,0.8,0.5,1.2
								c0.1,0.3,0.2,0.7,0.2,1c2.9,0.6,5.2,2.4,5.9,3c0.1,0.1,0.1,0.3,0,0.4l0,0c-0.1,0.1-0.3,0.1-0.4,0c-0.9-0.7-2.6-1.8-4.6-2.4
								c1.2,0.5,2.2,1.2,2.6,1.6c0.2,0.2,0.3,0.3,0.3,0.3s-2.4,3.2-5.7,3.5c-0.8,0.1-1.6,0-2.4-0.3c-2.8,1.6-6.5,2.7-9.9,2.8
								c-0.3,0.3-0.6,0.6-0.9,1c5.4-0.6,11,2.1,15.3,10.2c3.5,6.6,6.8,11.6,9.7,15.4c0.2-0.1,0.3-0.2,0.5-0.3
								c0.4-0.5,0.8-1.1,1.1-1.6L159.3,339.5L159.3,339.5z"/>
							<path class="st2" d="M154.6,361.2c0.5-0.3,1-0.6,1.4-0.9c-2.9-3.8-6.2-8.8-9.7-15.4c-4.3-8.1-9.9-10.8-15.3-10.2
								c-1.1,1-2.2,1.9-3.5,2.7C128.3,352.3,141.4,369.8,154.6,361.2L154.6,361.2z"/>
							<path class="st2" d="M120.5,329c0.8-0.9,1.8-1.7,2.7-2.5c0-0.2,0-0.5,0.1-0.7l-2.9,0.2l-4.1,0.4c-0.7,0.1-1.3-0.3-1.6-0.9
								l-1.5-3.4l3.8-0.3l7.1-0.6c0.2-0.7,0.4-1.4,0.7-2c-0.3-0.1-0.6-0.2-0.8-0.3l-7.5,0.7l-3,0.3c-0.1,0.4-0.2,0.8-0.2,1.3
								c0,0-2.8,10.4,1.7,17.4c0,0,0,0.1,0.1,0.1c0.7-2.4,1.8-4.6,3.1-6.6C118.9,330.9,119.7,329.9,120.5,329L120.5,329z"/>
							<path class="st2" d="M120.2,340.4c2.2-2.1,4.7-3.8,7.3-4.8c0-0.7,0.1-1.5,0.1-2.2c-2.1-0.6-3.7-1.7-4.1-3.6
								c-0.2-1.1-0.3-2.2-0.3-3.3c-1,0.8-1.9,1.6-2.7,2.5c-0.8,0.9-1.6,1.9-2.3,2.9c-1.4,2-2.4,4.3-3.1,6.6
								C116.2,340.1,118,340.6,120.2,340.4L120.2,340.4z"/>
							<path class="st2" d="M120.2,340.4c2.3-0.2,4.9-1.3,7.3-2.9c0-0.6,0-1.3,0-1.9C124.8,336.6,122.3,338.3,120.2,340.4
								L120.2,340.4z"/>
							<path class="st2" d="M127.5,335.6c1.2-0.4,2.3-0.7,3.5-0.8c0.3-0.3,0.6-0.6,0.9-1c-1.6,0.1-3.1,0-4.4-0.4
								C127.6,334.1,127.5,334.9,127.5,335.6z"/>
							<path class="st2" d="M127.5,337.5c1.3-0.8,2.5-1.7,3.5-2.7c-1.2,0.1-2.4,0.4-3.6,0.8C127.5,336.2,127.5,336.9,127.5,337.5
								L127.5,337.5z"/>
							<path class="st2" d="M145.4,322.6c-0.6-1.3-1.3-2.5-2.1-3.6c-1.4,0.4-2.9,0.8-4.3,1.3l-0.3,1.1
								C141,321.6,143.2,321.9,145.4,322.6L145.4,322.6z"/>
							<path class="st2" d="M138.2,323.4c-0.2,0.7-0.7,1.1-1.4,1.2l-3.1,0.3c0,0.1,0.1,0.1,0.1,0.1c2.1,2.5,0.8,5.9-1.8,8.8
								c3.4-0.2,7.1-1.2,9.9-2.8c-2.2-0.6-3.8-2.2-3.8-2.2s0.1-0.1,0.3-0.3c0.4-0.5,1.2-1.3,2.3-2c-1.9,0.9-3.4,2.4-4.1,3.2
								c-0.1,0.1-0.3,0.1-0.4,0l0,0c-0.1-0.1-0.1-0.3,0-0.4c0.7-0.9,3.7-4.2,7.6-4.5c0.8-0.1,1.6,0,2.4,0.1c0-0.3-0.1-0.7-0.2-1
								c-0.1-0.4-0.3-0.8-0.5-1.2c-2.1-0.7-4.4-1.1-6.7-1.2L138.2,323.4L138.2,323.4z"/>
							<path class="st2" d="M123.3,325.8c0,0.2-0.1,0.5-0.1,0.7c0.4-0.3,0.8-0.5,1.2-0.8C124.4,325.7,123.3,325.8,123.3,325.8z"/>
							<path class="st2" d="M124.9,319.1c-0.2,0.6-0.5,1.3-0.7,2l4.4-0.4C127.3,320.1,126.1,319.5,124.9,319.1L124.9,319.1z"/>
							<path class="st2" d="M124.4,325.7c-0.4,0.3-0.8,0.5-1.2,0.8c0,1.1,0.1,2.2,0.3,3.3c0.4,1.9,2,3,4.1,3.6
								c0.4-3.2,1.4-6,3.3-8.3L124.4,325.7L124.4,325.7z"/>
							<path class="st2" d="M133.8,325c0-0.1-0.1-0.1-0.1-0.1l-0.9,0.1l-1.8,0.2c-1.9,2.3-2.9,5.1-3.3,8.3c1.3,0.3,2.8,0.4,4.4,0.4
								C134.7,330.9,135.9,327.6,133.8,325L133.8,325z"/>
							<path class="st2" d="M135.5,317.9l-9.7,0.9c1.3,0.5,2.7,1.1,4,1.9l5.5-0.5l3.5-0.3c1.6-0.5,3.2-1,4.7-1.5
								c-1-1.3-2.1-2.5-3.3-3.5l-0.6,2.5L135.5,317.9L135.5,317.9z"/>
							<path class="st2" d="M137.8,313.1c-2.1-1.4-3.8-2.1-4-2.2c0.1,0.1,0.1,0.1,0.2,0.2l-5.3,0.5c-0.1,0.2-0.2,0.5-0.3,0.7
								c0,0-0.4,0.6-1.1,1.7l6.9-0.6L137.8,313.1L137.8,313.1z"/>
							<path class="st2" d="M116.5,319.1c-0.1-0.5,0-1.1,0-1.6c-1.4,0-2.6,0.9-3,2.2l3-0.3C116.5,319.4,116.5,319.3,116.5,319.1z"/>
							<path class="st2" d="M117.1,321.8l-3.8,0.3l1.5,3.4c0.3,0.6,0.9,1,1.6,0.9l4.1-0.4C119,325,117.8,323.5,117.1,321.8
								L117.1,321.8z"/>
							<path class="st2" d="M135.4,317.5c0,0.1,0,0.2,0,0.4l4.2-0.4l0.6-2.5c-0.9-0.7-1.7-1.4-2.5-1.9l-3.6,0.3
								C134.8,314.6,135.3,316,135.4,317.5L135.4,317.5z"/>
							<path class="st2" d="M135.6,321.6c-0.3,0-0.5,0.1-0.8,0.1c-0.1,0.1-0.1,0.3-0.2,0.4C135,321.9,135.3,321.7,135.6,321.6
								L135.6,321.6z"/>
							<path class="st2" d="M135.6,321.6c1-0.1,2.1-0.1,3.1-0.1l0.3-1.1c-0.8,0.3-1.6,0.5-2.4,0.8
								C136.3,321.3,136,321.4,135.6,321.6L135.6,321.6z"/>
							<path class="st2" d="M133.2,324.4c0.1,0.2,0.3,0.3,0.4,0.5l3.1-0.3c0.7-0.1,1.2-0.5,1.4-1.2l0.5-1.9c-1,0-2,0-3.1,0.1
								c-0.3,0.1-0.6,0.3-0.9,0.5C134.3,322.9,133.8,323.7,133.2,324.4L133.2,324.4z"/>
							<path class="st2" d="M132.8,325l0.9-0.1c-0.1-0.2-0.3-0.3-0.4-0.5C133.1,324.6,132.9,324.8,132.8,325z"/>
							<path class="st2" d="M135.1,321c0.3,0,0.5-0.1,0.8-0.1c0.3-0.1,0.6-0.3,1-0.4c0.6-0.2,1.3-0.4,1.9-0.7l-3.5,0.3
								C135.3,320.5,135.2,320.7,135.1,321L135.1,321z"/>
							<path class="st2" d="M133.8,310.9L133.8,310.9c-1.6-1.6-4.1-1.1-5.1,0.7l5.3-0.5C133.9,311,133.8,311,133.8,310.9
								L133.8,310.9z"/>
							<path class="st2" d="M117.1,321.8c0.7,1.8,1.8,3.2,3.3,4.3l2.9-0.2c0.1-1.6,0.4-3.2,0.9-4.7L117.1,321.8L117.1,321.8z"/>
							<path class="st2" d="M131.2,322.4c0.4,0.3,0.9,0.7,1.3,1.1c0.7-0.6,1.4-1,2.2-1.5c0.1-0.1,0.1-0.3,0.2-0.4
								c-1,0.1-2.1,0.3-3.1,0.6C131.6,322.3,131.4,322.4,131.2,322.4L131.2,322.4z"/>
							<path class="st2" d="M134.7,322.1c-0.8,0.4-1.6,0.9-2.2,1.5c0.3,0.3,0.5,0.6,0.8,0.9C133.8,323.7,134.3,322.9,134.7,322.1z"
								/>
							<path class="st2" d="M131.2,322.4c-0.8-0.7-1.7-1.2-2.6-1.7l-4.4,0.4c-0.4,1.5-0.8,3-0.9,4.7l1.1-0.1
								C126.4,324.3,128.7,323.2,131.2,322.4z"/>
							<path class="st2" d="M132.5,323.5c-0.4-0.4-0.8-0.8-1.3-1.1c-2.5,0.7-4.8,1.9-6.8,3.3l6.5-0.6
								C131.4,324.6,131.9,324,132.5,323.5L132.5,323.5z"/>
							<path class="st2" d="M132.5,323.5c-0.6,0.5-1.1,1-1.5,1.6l1.8-0.2c0.2-0.2,0.3-0.4,0.5-0.6
								C133,324.1,132.7,323.8,132.5,323.5L132.5,323.5z"/>
							<path class="st2" d="M132,321.6c1-0.3,2-0.5,3.1-0.6c0.1-0.3,0.2-0.6,0.2-0.9l-5.5,0.5c0.6,0.4,1.1,0.7,1.6,1.1
								C131.6,321.7,131.8,321.7,132,321.6L132,321.6z"/>
							<path class="st2" d="M116.5,317.5c0,0.5-0.1,1.1,0,1.6c0,0.1,0,0.2,0,0.4l7.5-0.7c-3.4-1-6.1-1.1-6.1-1.1
								C117.5,317.6,117,317.5,116.5,317.5z"/>
							<path class="st2" d="M125.8,318.7l9.7-0.9c0-0.1,0-0.2,0-0.4c-0.1-1.5-0.6-2.9-1.3-4.1l-6.9,0.6c-0.6,1.1-1.4,2.6-2.2,4.5
								C125.3,318.5,125.5,318.6,125.8,318.7L125.8,318.7z"/>
							<path class="st2" d="M157.6,359.5l10-3.8c7.7-0.4,15-3.1,19.7-8C182.7,348.6,172,350.7,157.6,359.5L157.6,359.5L157.6,359.5z
								"/>
							<path class="st2" d="M190.8,329.5l-29.9,9.6c1.8,6.9,0.4,13.8-3.2,19.3l-0.1,1c14.4-8.7,25.1-10.8,29.7-11.7
								c1.9-2,1.6-2.6,4.3-7S190.8,329.5,190.8,329.5L190.8,329.5z"/>
							<path class="st2" d="M157.7,358.4c3.6-5.5,5.1-12.4,3.2-19.3l-1.7,0.4L157.7,358.4L157.7,358.4z"/>
						</g>
					</g>
				</g>
			</g>
			<text transform="matrix(1 0 0 1 437.9 293.78)" class="st0 st4 st5">Ahoy</text>
			<text transform="matrix(1 0 0 1 344.27 437.78)" class="st0 st4 st6">Capy</text>
			<text transform="matrix(1 0 0 1 643.6599 437.78)" class="st0 st4 st7">!</text>
		</g>
	</g>
</g>
</svg>
