<?xml version="1.0" encoding="utf-8"?>
<!-- Generator: Adobe Illustrator 27.9.0, SVG Export Plug-In . SVG Version: 6.00 Build 0)  -->
<svg version="1.1" id="Layer_2_00000119086008746082851350000009785420296093319580_"
	 xmlns="http://www.w3.org/2000/svg" xmlns:xlink="http://www.w3.org/1999/xlink" x="0px" y="0px" viewBox="0 0 50 50"
	 style="enable-background:new 0 0 50 50;" xml:space="preserve">
<style type="text/css">
	.st0{fill:#3D3D3D;}
</style>
<g id="Settings_From_Account">
	<g id="My_Data">
		<path class="st0" d="M40.6,9V5.8c0,3.2-7,5.8-15.6,5.8S9.4,9,9.4,5.8V9c2.6,1.7,7.2,3.2,15.6,3.2S38.1,10.6,40.6,9L40.6,9z"/>
		<path class="st0" d="M9.4,44.5L9.4,44.5c0-0.1,0-0.2,0-0.3V44.5z"/>
		<path class="st0" d="M40.6,44.5v-0.3C40.6,44.3,40.6,44.4,40.6,44.5L40.6,44.5z"/>
		<path class="st0" d="M40.6,21.9V10.2c-2.6,1.7-7.2,3.2-15.6,3.2s-13.1-1.6-15.6-3.3v11.6c2.6,1.7,7.2,3.2,15.6,3.2
			S38.1,23.5,40.6,21.9L40.6,21.9z"/>
		<path class="st0" d="M25,26.4c-8.4,0-13.1-1.6-15.6-3.2v11.6c1.8,1.2,4.6,2.3,9,2.9c2-0.3,4.2-0.5,6.6-0.5s4.6,0.2,6.6,0.5
			c4.4-0.6,7.2-1.7,9-2.9V23.1C38.1,24.8,33.4,26.4,25,26.4L25,26.4z"/>
		<path class="st0" d="M40.6,44.2v-8.1c-1.8,1.2-4.6,2.3-9,2.9C36.9,39.8,40.6,41.9,40.6,44.2z"/>
		<path class="st0" d="M18.4,38.9c-4.4-0.6-7.2-1.7-9-2.9v8.1C9.4,41.8,13.1,39.8,18.4,38.9z"/>
		<path class="st0" d="M25,0C16.4,0,9.4,2.6,9.4,5.8h31.2C40.6,2.6,33.6,0,25,0L25,0z"/>
		<path class="st0" d="M25,11.6c8.6,0,15.6-2.6,15.6-5.8H9.4C9.4,9,16.4,11.6,25,11.6z"/>
		<path class="st0" d="M25,50c8.3,0,15.1-2.4,15.6-5.5H9.4C9.9,47.6,16.7,50,25,50L25,50z"/>
		<path class="st0" d="M31.6,37.6c-2-0.3-4.2-0.5-6.6-0.5s-4.6,0.2-6.6,0.5c1.9,0.2,4.1,0.4,6.6,0.4S29.7,37.9,31.6,37.6z"/>
		<path class="st0" d="M31.6,38.9c-1.9,0.2-4.1,0.4-6.6,0.4s-4.7-0.1-6.6-0.4c-5.3,0.9-9,2.9-9,5.3c0,0.1,0,0.2,0,0.3h31.2
			c0-0.1,0-0.2,0-0.3C40.6,41.8,36.9,39.8,31.6,38.9L31.6,38.9z"/>
	</g>
</g>
</svg>
