<?xml version="1.0" encoding="utf-8"?>
<!-- Generator: Adobe Illustrator 27.9.0, SVG Export Plug-In . SVG Version: 6.00 Build 0)  -->
<svg version="1.1" id="Layer_2_00000148653732703446381650000017839455847552662685_"
	 xmlns="http://www.w3.org/2000/svg" xmlns:xlink="http://www.w3.org/1999/xlink" x="0px" y="0px" viewBox="0 0 79.7 79.7"
	 style="enable-background:new 0 0 79.7 79.7;" xml:space="preserve">
<style type="text/css">
	.st0{fill:#621FCC;}
</style>
<g id="Home_Page">
	<g id="Category_Area">
		<g id="Categories">
			<g id="Outdoor_Icon">
				<g id="Outdoor">
					<path class="st0" d="M2.2,63.4h75.3c1.2,0,2.2,1,2.2,2.2v0c0,1.2-1,2.2-2.2,2.2H2.2c-1.2,0-2.2-1-2.2-2.2v0
						C0,64.4,1,63.4,2.2,63.4z"/>
					<rect x="23" y="50.1" class="st0" width="4.4" height="17.7"/>
					<circle class="st0" cx="25.2" cy="42.3" r="13.3"/>
					<circle class="st0" cx="25.2" cy="30.3" r="11.1"/>
					<circle class="st0" cx="25.2" cy="20.7" r="8.9"/>
					<path class="st0" d="M44.2,42.3H63c2.2,0,3.9,1.8,3.9,3.9H40.3C40.3,44,42.1,42.3,44.2,42.3z"/>
					<rect x="40.3" y="46.9" class="st0" width="26.6" height="3.9"/>
					<path class="st0" d="M41.4,51.6h24.4c1.1,0,1.9,0.9,1.9,2v0c0,1.1-0.9,2-1.9,2H41.4c-1.1,0-2-0.9-2-2v0
						C39.5,52.5,40.3,51.6,41.4,51.6z"/>
					<rect x="46.5" y="54.7" class="st0" width="3.9" height="9.7"/>
					<rect x="56.8" y="54.7" class="st0" width="3.9" height="9.7"/>
				</g>
			</g>
		</g>
	</g>
</g>
</svg>
