<?xml version="1.0" encoding="utf-8"?>
<!-- Generator: Adobe Illustrator 27.9.0, SVG Export Plug-In . SVG Version: 6.00 Build 0)  -->
<svg version="1.1" id="Layer_2_00000138559412622027041990000018139818726575308679_"
	 xmlns="http://www.w3.org/2000/svg" xmlns:xlink="http://www.w3.org/1999/xlink" x="0px" y="0px" viewBox="0 0 40 40"
	 style="enable-background:new 0 0 40 40;" xml:space="preserve">
<style type="text/css">
	.st0{fill:#A5A5A5;}
</style>
<g id="Create_Account">
	<g id="Password">
		<g id="Lock">
			<path class="st0" d="M8.4,12.7h23.3c2.8,0,5,2.2,5,5V35c0,2.8-2.2,5-5,5H8.4c-2.8,0-5-2.2-5-5V17.7C3.3,14.9,5.6,12.7,8.4,12.7z"
				/>
			<path class="st0" d="M10,4.9v10.6c0,2.7,2.2,4.9,4.8,4.9h10.3c2.7,0,4.8-2.2,4.8-4.9V4.9C30,2.2,27.8,0,25.2,0H14.8
				C12.2,0,10,2.2,10,4.9z M21.8,17.1h-3.7c-2.7,0-4.8-2.2-4.8-4.9V8.4c0-2.7,2.2-4.9,4.8-4.9h3.7c2.7,0,4.8,2.2,4.8,4.9v3.8
				C26.7,14.8,24.5,17.1,21.8,17.1z"/>
		</g>
	</g>
</g>
</svg>
