<?xml version="1.0" encoding="utf-8"?>
<!-- Generator: Adobe Illustrator 27.9.0, SVG Export Plug-In . SVG Version: 6.00 Build 0)  -->
<svg version="1.1" id="Layer_2_00000150791604275040642180000010074342621530859138_"
	 xmlns="http://www.w3.org/2000/svg" xmlns:xlink="http://www.w3.org/1999/xlink" x="0px" y="0px" viewBox="0 0 50 56"
	 style="enable-background:new 0 0 50 56;" xml:space="preserve">
<style type="text/css">
	.st0{fill:#A5A5A5;}
</style>
<g id="Account_Settings">
	<g id="Privacy_Policy">
		<path class="st0" d="M42.7,3.8L26.1,0.1c-0.7-0.2-1.4-0.2-2.1,0L7.3,3.8C6.1,4,5.2,5.2,5.2,6.4v24c0,7.6,3.6,14.8,9.8,19.3
			l7.3,5.4c1.6,1.2,3.8,1.2,5.4,0l7.3-5.4c6.1-4.5,9.8-11.7,9.8-19.3v-24C44.8,5.2,43.9,4,42.7,3.8L42.7,3.8z M27.4,28.9v4.7
			c0,1.3-1.1,2.4-2.4,2.4s-2.4-1.1-2.4-2.4v-4.7c-1.4-0.8-2.4-2.3-2.4-4.1c0-2.6,2.1-4.7,4.7-4.7s4.7,2.1,4.7,4.7
			C29.7,26.5,28.8,28.1,27.4,28.9z"/>
	</g>
</g>
</svg>
