<?xml version="1.0" encoding="utf-8"?>
<!-- Generator: Adobe Illustrator 27.9.0, SVG Export Plug-In . SVG Version: 6.00 Build 0)  -->
<svg version="1.1" id="Layer_2_00000109023013504233578760000014102337696571991181_"
	 xmlns="http://www.w3.org/2000/svg" xmlns:xlink="http://www.w3.org/1999/xlink" x="0px" y="0px" viewBox="0 0 50 50"
	 style="enable-background:new 0 0 50 50;" xml:space="preserve">
<style type="text/css">
	.st0{fill:#3D3D3D;}
</style>
<g id="Settings_From_Account">
	<g id="History">
		<path class="st0" d="M30.4,49.5c8-1.7,14.3-7.1,17.5-14l-6.6,1.4c-2.8,3.8-7,6.6-12,7.7C18.4,46.8,7.7,39.7,5.6,28.9
			C3.5,18.2,10.3,7.7,21,5.4c4.7-1,9.3-0.3,13.2,1.7c0.5,0.3,1.1,0.3,1.7,0.2l0,0c2.3-0.5,2.7-3.6,0.6-4.7C31.6,0.2,25.8-0.7,20,0.6
			C6.6,3.4-2,16.4,0.6,29.8C3.3,43.4,16.8,52.3,30.4,49.5L30.4,49.5z"/>
		<path class="st0" d="M42,28.1l-3.8,6.5c-0.8,1.4,0.2,3.2,1.9,3.2h7.5c1.7,0,2.7-1.8,1.9-3.2l-3.8-6.5C45,26.6,42.9,26.6,42,28.1
			L42,28.1z"/>
		<g id="Lock">
			<path class="st0" d="M19.2,21.4h11.6c1.4,0,2.5,1.1,2.5,2.5v8.6c0,1.4-1.1,2.5-2.5,2.5H19.2c-1.4,0-2.5-1.1-2.5-2.5v-8.6
				C16.7,22.5,17.8,21.4,19.2,21.4z"/>
			<path class="st0" d="M20,17.5v5.3c0,1.4,1.1,2.5,2.4,2.5h5.2c1.3,0,2.4-1.1,2.4-2.5v-5.3c0-1.4-1.1-2.5-2.4-2.5h-5.2
				C21.1,15,20,16.1,20,17.5z M25.9,23.5h-1.8c-1.3,0-2.4-1.1-2.4-2.5v-1.9c0-1.4,1.1-2.5,2.4-2.5h1.8c1.3,0,2.4,1.1,2.4,2.5v1.9
				C28.3,22.4,27.2,23.5,25.9,23.5z"/>
		</g>
	</g>
</g>
</svg>
