<?xml version="1.0" encoding="UTF-8"?><svg id="Layer_2" xmlns="http://www.w3.org/2000/svg" viewBox="0 0 40.38 40.38"><defs><style>.cls-1{fill:#afaeae;stroke-width:0px;}</style></defs><g id="Home_Page"><g id="Full_Top_Navigation_Area"><g id="Top_Navigation"><g id="Search_Bar_Input"><g id="Search_Icon"><path class="cls-1" d="m4.08,4.08c-5.43,5.43-5.43,14.25,0,19.68s14.25,5.43,19.68,0c5.43-5.43,5.43-14.25,0-19.68s-14.25-5.43-19.68,0Zm14.76,14.76c-2.72,2.72-7.12,2.72-9.84,0s-2.72-7.12,0-9.84,7.12-2.72,9.84,0,2.72,7.12,0,9.84Z"/><path class="cls-1" d="m25.36,15.15h7.42v25.05c0,1.54-1.25,2.78-2.78,2.78h-1.86c-1.54,0-2.78-1.25-2.78-2.78V15.15h0Z" transform="translate(-12.04 29.07) rotate(-45)"/></g></g></g></g></g></svg>