<?xml version="1.0" encoding="UTF-8"?><svg id="Layer_2" xmlns="http://www.w3.org/2000/svg" viewBox="0 0 50 50"><defs><style>.cls-1{fill:#3d3d3d;stroke-width:0px;}</style></defs><g id="Account_Settings"><g id="Settings"><path class="cls-1" d="m46.88,21.88h-4.29c-.46-2.6-1.48-5.01-2.94-7.1l3.04-3.04c1.22-1.22,1.22-3.2,0-4.42h0c-1.22-1.22-3.2-1.22-4.42,0l-3.04,3.04c-2.08-1.46-4.49-2.48-7.1-2.94V3.12c0-1.73-1.4-3.12-3.12-3.12s-3.12,1.4-3.12,3.12v4.29c-2.6.46-5.01,1.48-7.1,2.94l-3.04-3.04c-1.22-1.22-3.2-1.22-4.42,0h0c-1.22,1.22-1.22,3.2,0,4.42l3.04,3.04c-1.46,2.08-2.48,4.49-2.94,7.1H3.12c-1.73,0-3.12,1.4-3.12,3.12s1.4,3.12,3.12,3.12h4.29c.46,2.6,1.48,5.01,2.94,7.1l-3.04,3.04c-1.22,1.22-1.22,3.2,0,4.42h0c1.22,1.22,3.2,1.22,4.42,0l3.04-3.04c2.08,1.46,4.49,2.48,7.1,2.94v4.29c0,1.73,1.4,3.12,3.12,3.12s3.12-1.4,3.12-3.12v-4.29c2.6-.46,5.01-1.48,7.1-2.94l3.04,3.04c1.22,1.22,3.2,1.22,4.42,0h0c1.22-1.22,1.22-3.2,0-4.42l-3.04-3.04c1.46-2.08,2.48-4.49,2.94-7.1h4.29c1.73,0,3.12-1.4,3.12-3.12s-1.4-3.12-3.12-3.12Zm-12.42,8.16c-1,1.88-2.54,3.42-4.42,4.42-.61.32-1.25.59-1.91.79-.99.3-2.04.46-3.12.46s-2.14-.16-3.12-.46c-.67-.2-1.31-.47-1.91-.79-1.88-1-3.42-2.54-4.42-4.42-.32-.61-.59-1.25-.79-1.91-.3-.99-.46-2.04-.46-3.12s.16-2.14.46-3.12c.2-.67.47-1.31.79-1.91,1-1.88,2.54-3.42,4.42-4.42.61-.32,1.25-.59,1.91-.79.99-.3,2.04-.46,3.12-.46s2.14.16,3.12.46c.67.2,1.31.47,1.91.79,1.88,1,3.42,2.54,4.42,4.42.32.61.59,1.25.79,1.91.3.99.46,2.04.46,3.12s-.16,2.14-.46,3.12c-.2.67-.47,1.31-.79,1.91Z"/></g></g></svg>