<?xml version="1.0" encoding="utf-8"?>
<!-- Generator: Adobe Illustrator 27.9.0, SVG Export Plug-In . SVG Version: 6.00 Build 0)  -->
<svg version="1.1" id="Layer_2_00000053513942785670325390000016062009520024179128_"
	 xmlns="http://www.w3.org/2000/svg" xmlns:xlink="http://www.w3.org/1999/xlink" x="0px" y="0px" viewBox="0 0 56 56"
	 style="enable-background:new 0 0 56 56;" xml:space="preserve">
<style type="text/css">
	.st0{fill:none;}
	.st1{fill:#621FCC;}
</style>
<g id="Home_Page">
	<g id="Category_Area">
		<g id="Categories">
			<g id="Shopping_Icon">
				<g id="Shopping_Icon-2">
					<path class="st0" d="M35.1,6.8H20.9c-1.3,0-2.4,1.1-2.4,2.4V18h19V9.2C37.5,7.9,36.4,6.8,35.1,6.8z"/>
					<path class="st1" d="M54.1,46.5l-5.8-23.2c-0.7-2.9-3.2-4.9-6.1-5.2v0.6c0,1.3-1.1,2.4-2.4,2.4s-2.4-1.1-2.4-2.4V18h-19v0.7
						c0,1.3-1.1,2.4-2.4,2.4c-1.3,0-2.4-1.1-2.4-2.4v-0.6c-2.9,0.3-5.3,2.3-6.1,5.2L1.9,46.5C0.7,51.3,4.3,56,9.3,56h37.4
						C51.7,56,55.3,51.3,54.1,46.5z"/>
					<path class="st1" d="M18.5,15.9V7.1c0-1.3,1.1-2.4,2.4-2.4h14.2c1.3,0,2.4,1.1,2.4,2.4v8.8h4.1c0.2,0,0.4,0,0.7,0V2.4
						c0-1.3-1.1-2.4-2.4-2.4H16.1c-1.3,0-2.4,1.1-2.4,2.4V16c0.2,0,0.4,0,0.7,0L18.5,15.9L18.5,15.9z"/>
					<path class="st1" d="M37.5,18v0.7c0,1.3,1.1,2.4,2.4,2.4s2.4-1.1,2.4-2.4v-0.6c-0.2,0-0.4,0-0.7,0L37.5,18L37.5,18z"/>
					<path class="st1" d="M16.1,21.1c1.3,0,2.4-1.1,2.4-2.4V18h-4.1c-0.2,0-0.4,0-0.7,0v0.6C13.8,20,14.8,21.1,16.1,21.1L16.1,21.1z
						"/>
				</g>
			</g>
		</g>
	</g>
</g>
</svg>
