<?xml version="1.0" encoding="UTF-8"?><svg id="Layer_2" xmlns="http://www.w3.org/2000/svg" xmlns:xlink="http://www.w3.org/1999/xlink" viewBox="0 0 57.73 57.73"><defs><style>.cls-1{clip-path:url(#clippath);}.cls-2{fill:none;}.cls-2,.cls-3{stroke-width:0px;}.cls-3{fill:#777;}</style><clipPath id="clippath"><circle class="cls-2" cx="28.87" cy="28.87" r="28.87"/></clipPath></defs><g id="Sign_In"><g class="cls-1"><path class="cls-3" d="m44.05,23.23c-2.95,5.35-8.64,8.98-15.18,8.98s-12.24-3.63-15.18-8.98c-4.81,3.65-7.91,9.43-7.91,15.93v17.89c0,4.58,3.71,8.29,8.29,8.29h29.6c4.58,0,8.29-3.71,8.29-8.29v-17.89c0-6.5-3.1-12.28-7.91-15.93Z"/><path class="cls-3" d="m31.45,18.46c3.79,0,7.28,1.26,10.07,3.39,1.13-2.06,1.78-4.43,1.78-6.95,0-7.97-6.46-14.43-14.43-14.43s-14.43,6.46-14.43,14.43c0,2.52.65,4.89,1.78,6.95,2.8-2.13,6.29-3.39,10.07-3.39h5.16Z"/><path class="cls-3" d="m28.87,29.33c5.45,0,10.2-3.02,12.65-7.48-2.8-2.13-6.29-3.39-10.07-3.39h-5.16c-3.79,0-7.28,1.26-10.07,3.39,2.46,4.46,7.2,7.48,12.65,7.48Z"/></g></g></svg>