<?xml version="1.0" encoding="utf-8"?>
<!-- Generator: Adobe Illustrator 27.9.0, SVG Export Plug-In . SVG Version: 6.00 Build 0)  -->
<svg version="1.1" id="Layer_2_00000158024565639708969630000009926233218960005566_"
	 xmlns="http://www.w3.org/2000/svg" xmlns:xlink="http://www.w3.org/1999/xlink" x="0px" y="0px" viewBox="0 0 57.6 57.6"
	 style="enable-background:new 0 0 57.6 57.6;" xml:space="preserve">
<style type="text/css">
	.st0{fill:#A5A5A5;}
</style>
<g id="Account_Settings">
	<g id="Suport">
		<g id="Support">
			<path class="st0" d="M28.8,5.7c10.8,0,19.6,8.8,19.6,19.6h4.9c0-13.5-11-24.5-24.5-24.5S4.3,11.7,4.3,25.3h4.9
				C9.2,14.5,18,5.7,28.8,5.7L28.8,5.7z"/>
			<path class="st0" d="M6.2,41.4h3.8V21.8H6.2C2.8,21.8,0,24.6,0,28v7.3C0,38.7,2.8,41.4,6.2,41.4L6.2,41.4z"/>
			<path class="st0" d="M15.8,38V25.3c0-1.7-1.3-3.2-2.9-3.4v19.5C14.5,41.1,15.8,39.7,15.8,38L15.8,38z"/>
			<path class="st0" d="M51.4,21.8h-3.8v19.6h3.8c3.4,0,6.2-2.8,6.2-6.2V28C57.6,24.6,54.8,21.8,51.4,21.8L51.4,21.8z"/>
			<path class="st0" d="M41.8,25.3v12.6c0,1.7,1.3,3.2,2.9,3.4V21.9C43,22.1,41.8,23.6,41.8,25.3L41.8,25.3z"/>
			<path class="st0" d="M50.8,37.2v12.7c0,1.1-0.9,2-2,2H26.3v4.9h27.4c1.1,0,2-0.9,2-2V37.2L50.8,37.2L50.8,37.2z"/>
			<path class="st0" d="M21.4,47v7.8c0,1.1,0.9,2,2,2h2.9V47H21.4z"/>
			<path class="st0" d="M23.9,49.9L23.9,49.9c-2.7,0-4.9-2.2-4.9-4.9l0,0c0-2.7,2.2-4.9,4.9-4.9h0c2.7,0,4.9,2.2,4.9,4.9l0,0
				C28.8,47.7,26.6,49.9,23.9,49.9z"/>
		</g>
	</g>
</g>
</svg>
