<?xml version="1.0" encoding="utf-8"?>
<!-- Generator: Adobe Illustrator 27.9.0, SVG Export Plug-In . SVG Version: 6.00 Build 0)  -->
<svg version="1.1" id="Layer_2_00000060741942271732979790000014757320893059621811_"
	 xmlns="http://www.w3.org/2000/svg" xmlns:xlink="http://www.w3.org/1999/xlink" x="0px" y="0px" viewBox="0 0 40 40"
	 style="enable-background:new 0 0 40 40;" xml:space="preserve">
<style type="text/css">
	.st0{fill:#FFFFFF;}
</style>
<g id="Filters">
	<g id="Filters-2">
		<g id="Payments_Accepted_Area">
			<g id="Payments_Area">
				<g id="List_of_Payments">
					<g id="Contactless_Area">
						<path class="st0" d="M36,8.5H4c-2.2,0-4,1.8-4,4v15c0,2.2,1.8,4,4,4h32c2.2,0,4-1.8,4-4v-15C40,10.3,38.2,8.5,36,8.5z
							 M15.6,20.3c-0.1,0.1-0.2,0.1-0.3,0l-1.1-1.6c-0.1-0.1,0-0.2,0.1-0.3l1.6-1.1c0.1-0.1,0.2,0,0.3,0.1
							C16.6,18.3,16.4,19.6,15.6,20.3L15.6,20.3z M17.2,23.1L16.5,22c2-1.3,2.5-4,1.1-6l1-0.7c0.7-0.5,1.7-0.2,2.1,0.6
							c0.9,2.5,0.4,5.4-1.4,7.3C18.7,23.9,17.7,23.8,17.2,23.1z M22.2,27.1c-0.7,0.7-1.9,0.5-2.4-0.3l-0.4-0.5
							c4.3-3,5.4-8.9,2.5-13.2l0.5-0.3c0.8-0.6,2-0.3,2.4,0.6C26.9,18.1,25.9,23.6,22.2,27.1L22.2,27.1z"/>
					</g>
				</g>
			</g>
		</g>
	</g>
</g>
</svg>
