<?xml version="1.0" encoding="utf-8"?>
<!-- Generator: Adobe Illustrator 27.9.0, SVG Export Plug-In . SVG Version: 6.00 Build 0)  -->
<svg version="1.1" id="Layer_2_00000073683986621626333720000011255253276855928985_"
	 xmlns="http://www.w3.org/2000/svg" xmlns:xlink="http://www.w3.org/1999/xlink" x="0px" y="0px" viewBox="0 0 56 56"
	 style="enable-background:new 0 0 56 56;" xml:space="preserve">
<style type="text/css">
	.st0{fill:#A5A5A5;}
</style>
<g id="Account_Settings">
	<g id="Terms_of_Service">
		<path class="st0" d="M47.8,47.8H21.2c-0.3,0-0.5,0.2-0.5,0.5v2.6c0,2.8-2.3,5.1-5.1,5.1h32.2c3.8,0,6.8-3,6.8-6.8v-1.4L47.8,47.8
			L47.8,47.8z"/>
		<path class="st0" d="M6.4,2C6,1.8,5.6,1.8,5.2,1.8c-2.1,0-3.8,1.7-3.8,3.8V12H9V5.6C9,3.9,7.9,2.4,6.4,2L6.4,2z"/>
		<path class="st0" d="M18.7,49.4v-1.7c0-0.7,0.6-1.3,1.3-1.3h27.8V6.5c0-3.6-2.9-6.5-6.5-6.5H7.3C7.1,0,7,0.1,7,0.3l0,0
			C7,0.4,7,0.5,7.2,0.6c2,0.7,3.3,2.6,3.3,4.8v44c0,2.8,1.8,5.1,4.1,5.1S18.7,52.2,18.7,49.4z"/>
	</g>
</g>
</svg>
